<svg width="29" height="37" viewBox="0 0 29 37" fill="none" xmlns="http://www.w3.org/2000/svg">
<path d="M28.75 15.0417C28.75 15.539 28.5525 16.0159 28.2008 16.3675C27.8492 16.7191 27.3723 16.9167 26.875 16.9167C26.3777 16.9167 25.9008 16.7191 25.5492 16.3675C25.1975 16.0159 25 15.539 25 15.0417C25 12.2238 23.8806 9.52125 21.888 7.52868C19.8954 5.5361 17.1929 4.41669 14.375 4.41669C11.5571 4.41669 8.85456 5.5361 6.86199 7.52868C4.86942 9.52125 3.75 12.2238 3.75 15.0417C3.75 18.9479 4.93437 20.0886 6.30469 21.4104C7.675 22.7323 9.375 24.3714 9.375 28.1667C9.375 29.4928 9.90178 30.7645 10.8395 31.7022C11.7771 32.6399 13.0489 33.1667 14.375 33.1667C15.7812 33.1667 16.9047 32.5886 17.9297 31.3479C18.25 30.9768 18.7029 30.7459 19.1914 30.7047C19.6799 30.6635 20.1651 30.8152 20.5431 31.1274C20.9211 31.4396 21.1618 31.8874 21.2136 32.3749C21.2654 32.8624 21.1242 33.3508 20.8203 33.7354C19.0766 35.8464 16.9078 36.9167 14.375 36.9167C12.0551 36.9142 9.83096 35.9915 8.19056 34.3511C6.55015 32.7107 5.62748 30.4866 5.625 28.1667C5.625 25.9651 4.90156 25.2667 3.70156 24.1042C2.05156 22.5198 0 20.5401 0 15.0417C0 11.2292 1.5145 7.57286 4.21034 4.87703C6.90618 2.18119 10.5625 0.666687 14.375 0.666687C18.1875 0.666687 21.8438 2.18119 24.5397 4.87703C27.2355 7.57286 28.75 11.2292 28.75 15.0417ZM22.4797 23.4182C22.2665 23.2949 22.0311 23.2147 21.7869 23.1823C21.5428 23.1499 21.2946 23.166 21.0567 23.2295C20.8187 23.2931 20.5956 23.4029 20.4001 23.5527C20.2045 23.7025 20.0405 23.8894 19.9172 24.1026C19.8486 24.2222 19.7424 24.3158 19.6151 24.3688C19.4878 24.4217 19.3465 24.4311 19.2134 24.3955C19.0802 24.3598 18.9625 24.2811 18.8787 24.1716C18.7949 24.0621 18.7496 23.928 18.75 23.7901C18.75 22.6011 19.3203 21.7807 20.25 20.5401C21.25 19.2057 22.5 17.5417 22.5 15.0417C22.5 12.8868 21.644 10.8202 20.1202 9.29644C18.5965 7.77271 16.5299 6.91669 14.375 6.91669C12.2201 6.91669 10.1535 7.77271 8.62976 9.29644C7.10602 10.8202 6.25 12.8868 6.25 15.0417C6.25 15.539 6.44754 16.0159 6.79917 16.3675C7.15081 16.7191 7.62772 16.9167 8.125 16.9167C8.62228 16.9167 9.09919 16.7191 9.45082 16.3675C9.80246 16.0159 10 15.539 10 15.0417C10 13.8814 10.4609 12.7686 11.2814 11.9481C12.1019 11.1276 13.2147 10.6667 14.375 10.6667C15.5353 10.6667 16.6481 11.1276 17.4686 11.9481C18.2891 12.7686 18.75 13.8814 18.75 15.0417C18.75 16.2307 18.1797 17.0511 17.25 18.2917C16.25 19.6276 15 21.2917 15 23.7917C14.9999 24.7548 15.3177 25.6911 15.904 26.4552C16.4903 27.2194 17.3124 27.7687 18.2427 28.018C19.173 28.2672 20.1596 28.2025 21.0494 27.8339C21.9393 27.4653 22.6826 26.8133 23.1641 25.9792C23.4128 25.5488 23.4804 25.0373 23.352 24.557C23.2237 24.0768 22.9099 23.6672 22.4797 23.4182Z" fill="#4773AD"/>
</svg>
