<svg width="51" height="60" viewBox="0 0 51 60" fill="none" xmlns="http://www.w3.org/2000/svg">
<path d="M47.6739 0H9.97826C7.33186 0 4.79385 1.05357 2.92256 2.92893C1.05128 4.8043 0 7.34784 0 10V56.6667C0 57.5507 0.350426 58.3986 0.974188 59.0237C1.59795 59.6488 2.44395 60 3.32609 60H43.2391C44.1213 60 44.9673 59.6488 45.591 59.0237C46.2148 58.3986 46.5652 57.5507 46.5652 56.6667C46.5652 55.7826 46.2148 54.9348 45.591 54.3096C44.9673 53.6845 44.1213 53.3333 43.2391 53.3333H6.65217V52.2222C6.65217 51.3382 7.0026 50.4903 7.62636 49.8652C8.25012 49.2401 9.09613 48.8889 9.97826 48.8889H47.6739C48.556 48.8889 49.402 48.5377 50.0258 47.9126C50.6496 47.2875 51 46.4396 51 45.5556V3.33333C51 2.44928 50.6496 1.60143 50.0258 0.976311C49.402 0.35119 48.556 0 47.6739 0ZM44.3478 42.2222H9.97826C8.845 42.2201 7.71984 42.4137 6.65217 42.7944V10C6.65217 9.11594 7.0026 8.2681 7.62636 7.64298C8.25012 7.01786 9.09613 6.66667 9.97826 6.66667H44.3478V42.2222Z" fill="#85E0A3"/>
</svg>
