<svg width="41" height="40" viewBox="0 0 41 40" fill="none" xmlns="http://www.w3.org/2000/svg">
<path d="M31.125 10.4166H25.5V4.79163C25.5 4.38124 25.4192 3.97488 25.2621 3.59574C25.1051 3.2166 24.8749 2.8721 24.5847 2.58192C24.2945 2.29173 23.95 2.06155 23.5709 1.9045C23.1917 1.74746 22.7854 1.66663 22.375 1.66663H17.375C16.5462 1.66663 15.7513 1.99587 15.1653 2.58192C14.5792 3.16797 14.25 3.96282 14.25 4.79163V10.4166H8.625C7.7962 10.4166 7.00134 10.7459 6.41529 11.3319C5.82924 11.918 5.5 12.7128 5.5 13.5416V18.5416C5.5 19.3704 5.82924 20.1653 6.41529 20.7513C7.00134 21.3374 7.7962 21.6666 8.625 21.6666H14.25V34.7916C14.25 35.6204 14.5792 36.4153 15.1653 37.0013C15.7513 37.5874 16.5462 37.9166 17.375 37.9166H22.375C22.7854 37.9166 23.1917 37.8358 23.5709 37.6787C23.95 37.5217 24.2945 37.2915 24.5847 37.0013C24.8749 36.7111 25.1051 36.3666 25.2621 35.9875C25.4192 35.6084 25.5 35.202 25.5 34.7916V21.6666H31.125C31.9538 21.6666 32.7487 21.3374 33.3347 20.7513C33.9208 20.1653 34.25 19.3704 34.25 18.5416V13.5416C34.25 12.7128 33.9208 11.918 33.3347 11.3319C32.7487 10.7459 31.9538 10.4166 31.125 10.4166ZM30.5 17.9166H24.875C24.0462 17.9166 23.2513 18.2459 22.6653 18.8319C22.0792 19.418 21.75 20.2128 21.75 21.0416V34.1666H18V21.0416C18 20.2128 17.6708 19.418 17.0847 18.8319C16.4987 18.2459 15.7038 17.9166 14.875 17.9166H9.25V14.1666H14.875C15.2854 14.1666 15.6917 14.0858 16.0709 13.9287C16.45 13.7717 16.7945 13.5415 17.0847 13.2513C17.3749 12.9612 17.6051 12.6167 17.7621 12.2375C17.9192 11.8584 18 11.452 18 11.0416V5.41663H21.75V11.0416C21.75 11.452 21.8308 11.8584 21.9879 12.2375C22.1449 12.6167 22.3751 12.9612 22.6653 13.2513C23.2513 13.8374 24.0462 14.1666 24.875 14.1666H30.5V17.9166Z" fill="#85E0A3"/>
</svg>
