<svg width="38" height="38" viewBox="0 0 38 38" fill="none" xmlns="http://www.w3.org/2000/svg">
<path d="M19.0003 0.666687C15.3743 0.666687 11.8298 1.74192 8.81488 3.75641C5.79998 5.7709 3.45015 8.63418 2.06254 11.9842C0.674936 15.3341 0.311875 19.0204 1.01927 22.5767C1.72667 26.133 3.47275 29.3997 6.03671 31.9636C8.60067 34.5276 11.8674 36.2737 15.4237 36.9811C18.98 37.6885 22.6662 37.3254 26.0162 35.9378C29.3662 34.5502 32.2294 32.2004 34.2439 29.1855C36.2584 26.1706 37.3337 22.626 37.3337 19C37.3283 14.1394 35.395 9.47935 31.958 6.04235C28.521 2.60535 23.861 0.672079 19.0003 0.666687ZM15.4474 26.4692H22.5533C21.7832 28.8151 20.5778 30.9948 19.0003 32.8943C17.4228 30.9948 16.2175 28.8151 15.4474 26.4692ZM14.4866 22.3951C14.1675 20.143 14.1675 17.8571 14.4866 15.605H23.5141C23.8332 17.8571 23.8332 20.143 23.5141 22.3951H14.4866ZM4.74107 19C4.74102 17.8558 4.87953 16.7158 5.15357 15.605H10.3803C10.1041 17.8599 10.1041 20.1401 10.3803 22.3951H5.15357C4.87953 21.2842 4.74102 20.1442 4.74107 19ZM22.5533 11.5309H15.4474C16.2175 9.18496 17.4228 7.00519 19.0003 5.10573C20.5778 7.00519 21.7832 9.18496 22.5533 11.5309ZM27.6204 15.605H32.8471C33.3971 17.8349 33.3971 20.1651 32.8471 22.3951H27.6204C27.8965 20.1401 27.8965 17.8599 27.6204 15.605ZM31.1411 11.5309H26.809C26.2566 9.53807 25.4613 7.62075 24.4409 5.82209C27.2174 6.97579 29.5612 8.97277 31.1411 11.5309ZM13.5682 5.82209C12.5449 7.62034 11.7467 9.53768 11.1917 11.5309H6.85959C8.44169 8.97142 10.7886 6.97428 13.5682 5.82209ZM6.85959 26.4692H11.1917C11.7467 28.4624 12.5449 30.3797 13.5682 32.1779C10.7886 31.0258 8.44169 29.0286 6.85959 26.4692ZM24.4409 32.1779C25.4613 30.3793 26.2566 28.462 26.809 26.4692H31.1411C29.5612 29.0273 27.2174 31.0242 24.4409 32.1779Z" fill="#4773AD"/>
</svg>
