<svg width="52" height="66" viewBox="0 0 52 66" fill="none" xmlns="http://www.w3.org/2000/svg">
<path d="M51.75 25.875C51.75 26.7701 51.3944 27.6285 50.7615 28.2615C50.1286 28.8944 49.2701 29.25 48.375 29.25C47.4799 29.25 46.6215 28.8944 45.9885 28.2615C45.3556 27.6285 45 26.7701 45 25.875C45 20.8027 42.9851 15.9382 39.3984 12.3516C35.8118 8.76495 30.9473 6.75 25.875 6.75C20.8027 6.75 15.9382 8.76495 12.3516 12.3516C8.76495 15.9382 6.75 20.8027 6.75 25.875C6.75 32.9062 8.88187 34.9594 11.3484 37.3387C13.815 39.7181 16.875 42.6684 16.875 49.5C16.875 51.8869 17.8232 54.1761 19.511 55.864C21.1989 57.5518 23.4881 58.5 25.875 58.5C28.4062 58.5 30.4284 57.4594 32.2734 55.2262C32.85 54.5583 33.6653 54.1426 34.5446 54.0684C35.4239 53.9943 36.2972 54.2674 36.9776 54.8293C37.6579 55.3913 38.0912 56.1973 38.1844 57.0748C38.2777 57.9522 38.0236 58.8313 37.4766 59.5237C34.3378 63.3234 30.4341 65.25 25.875 65.25C21.6992 65.2455 17.6957 63.5847 14.743 60.632C11.7903 57.6793 10.1295 53.6758 10.125 49.5C10.125 45.5372 8.82281 44.28 6.66281 42.1875C3.69281 39.3356 0 35.7722 0 25.875C0 19.0125 2.72611 12.4311 7.57861 7.57861C12.4311 2.72611 19.0125 0 25.875 0C32.7375 0 39.3189 2.72611 44.1714 7.57861C49.0239 12.4311 51.75 19.0125 51.75 25.875ZM40.4634 40.9528C40.0797 40.7307 39.656 40.5864 39.2165 40.5281C38.777 40.4698 38.3303 40.4987 37.902 40.6131C37.4736 40.7275 37.072 40.9252 36.7201 41.1949C36.3682 41.4645 36.0728 41.8009 35.8509 42.1847C35.7275 42.4 35.5363 42.5684 35.3072 42.6638C35.078 42.7591 34.8238 42.776 34.584 42.7118C34.3443 42.6476 34.1325 42.5059 33.9817 42.3089C33.8308 42.1118 33.7494 41.8704 33.75 41.6222C33.75 39.4819 34.7766 38.0053 36.45 35.7722C38.25 33.3703 40.5 30.375 40.5 25.875C40.5 21.9962 38.9592 18.2763 36.2164 15.5336C33.4737 12.7908 29.7538 11.25 25.875 11.25C21.9962 11.25 18.2763 12.7908 15.5336 15.5336C12.7908 18.2763 11.25 21.9962 11.25 25.875C11.25 26.7701 11.6056 27.6285 12.2385 28.2615C12.8714 28.8944 13.7299 29.25 14.625 29.25C15.5201 29.25 16.3785 28.8944 17.0115 28.2615C17.6444 27.6285 18 26.7701 18 25.875C18 23.7864 18.8297 21.7834 20.3065 20.3065C21.7834 18.8297 23.7864 18 25.875 18C27.9636 18 29.9666 18.8297 31.4435 20.3065C32.9203 21.7834 33.75 23.7864 33.75 25.875C33.75 28.0153 32.7234 29.4919 31.05 31.725C29.25 34.1297 27 37.125 27 41.625C26.9999 43.3587 27.5718 45.0439 28.6272 46.4194C29.6825 47.7948 31.1622 48.7836 32.8368 49.2323C34.5115 49.681 36.2873 49.5646 37.889 48.901C39.4907 48.2375 40.8286 47.064 41.6953 45.5625C42.143 44.7878 42.2646 43.867 42.0336 43.0026C41.8026 42.1382 41.2379 41.4009 40.4634 40.9528Z" fill="#85E0A3"/>
</svg>
