<svg width="41" height="40" viewBox="0 0 41 40" fill="none" xmlns="http://www.w3.org/2000/svg">
<path d="M28.1035 5C24.9645 5 22.1785 6.23906 20.291 8.36875C18.4035 6.23906 15.6176 5 12.4785 5C9.74449 5.00331 7.12338 6.09086 5.19013 8.02411C3.25688 9.95737 2.16932 12.5785 2.16602 15.3125C2.16602 26.6156 18.6988 35.6469 19.402 36.0266C19.6752 36.1737 19.9807 36.2507 20.291 36.2507C20.6014 36.2507 20.9068 36.1737 21.1801 36.0266C21.8832 35.6469 38.416 26.6156 38.416 15.3125C38.4127 12.5785 37.3252 9.95737 35.3919 8.02411C33.4586 6.09086 30.8375 5.00331 28.1035 5ZM27.2457 27.2437C25.0696 29.0904 22.7433 30.7524 20.291 32.2125C17.8388 30.7524 15.5125 29.0904 13.3363 27.2437C9.95039 24.3391 5.91602 19.9094 5.91602 15.3125C5.91602 13.572 6.60742 11.9028 7.83813 10.6721C9.06883 9.4414 10.738 8.75 12.4785 8.75C15.2598 8.75 17.5879 10.2187 18.5551 12.5844C18.6959 12.9292 18.9361 13.2243 19.2453 13.4321C19.5545 13.6398 19.9185 13.7508 20.291 13.7508C20.6635 13.7508 21.0275 13.6398 21.3367 13.4321C21.6459 13.2243 21.8862 12.9292 22.027 12.5844C22.9941 10.2187 25.3223 8.75 28.1035 8.75C29.844 8.75 31.5132 9.4414 32.7439 10.6721C33.9746 11.9028 34.666 13.572 34.666 15.3125C34.666 19.9094 30.6316 24.3391 27.2457 27.2437Z" fill="#85E0A3"/>
</svg>
