<svg width="40" height="36" viewBox="0 0 40 36" fill="none" xmlns="http://www.w3.org/2000/svg">
<path d="M25.8333 15.0834C27.4442 15.0834 28.75 13.7775 28.75 12.1667C28.75 10.5559 27.4442 9.25002 25.8333 9.25002C24.2225 9.25002 22.9167 10.5559 22.9167 12.1667C22.9167 13.7775 24.2225 15.0834 25.8333 15.0834Z" fill="#4773AD"/>
<path fill-rule="evenodd" clip-rule="evenodd" d="M5 5.91669V30.0834H35V5.91669H5ZM0 4.87502C0 2.68889 1.77221 0.916687 3.95833 0.916687H36.0417C38.2278 0.916687 40 2.68889 40 4.87502V31.125C40 33.3111 38.2278 35.0834 36.0417 35.0834H3.95833C1.77221 35.0834 0 33.3111 0 31.125V4.87502Z" fill="#4773AD"/>
<path fill-rule="evenodd" clip-rule="evenodd" d="M29.2333 22.3894L35.7316 28.8926C36.7075 29.8693 38.2904 29.8699 39.2671 28.894C40.2438 27.918 40.2444 26.3351 39.2684 25.3584L32.032 18.1166C31.2898 17.3748 30.2833 16.9581 29.234 16.9581C28.1848 16.9581 27.1786 17.3746 26.4364 18.1161C26.4362 18.1163 26.4365 18.116 26.4364 18.1161L21.7533 22.7937C20.7764 23.7695 20.7755 25.3524 21.7513 26.3293C22.727 27.3061 24.3099 27.3071 25.2868 26.3313L29.2333 22.3894ZM29.9703 21.6533C29.9702 21.6534 29.9705 21.6531 29.9703 21.6533V21.6533Z" fill="#4773AD"/>
<path fill-rule="evenodd" clip-rule="evenodd" d="M13.4375 18.0138L4.26793 27.1851C3.29171 28.1615 1.7088 28.1616 0.732396 27.1854C-0.244005 26.2092 -0.244151 24.6263 0.73207 23.6499L10.637 13.7431C11.0044 13.3755 11.4415 13.083 11.9217 12.8839C12.4022 12.6847 12.9173 12.5822 13.4375 12.5822C13.9577 12.5822 14.4728 12.6847 14.9533 12.8839C15.4334 13.083 15.8697 13.3746 16.2371 13.7422L33.3087 30.8157C34.285 31.792 34.2849 33.375 33.3086 34.3512C32.3322 35.3275 30.7493 35.3274 29.773 34.351L13.4375 18.0138Z" fill="#4773AD"/>
</svg>
