<svg width="25" height="37" viewBox="0 0 25 37" fill="none" xmlns="http://www.w3.org/2000/svg">
<path d="M19.708 0.666687H4.70801C3.54769 0.666687 2.43489 1.12762 1.61442 1.94809C0.793944 2.76857 0.333008 3.88136 0.333008 5.04169V32.5417C0.333008 33.702 0.793944 34.8148 1.61442 35.6353C2.43489 36.4557 3.54769 36.9167 4.70801 36.9167H19.708C20.8683 36.9167 21.9811 36.4557 22.8016 35.6353C23.6221 34.8148 24.083 33.702 24.083 32.5417V5.04169C24.083 3.88136 23.6221 2.76857 22.8016 1.94809C21.9811 1.12762 20.8683 0.666687 19.708 0.666687ZM4.08301 10.6667H20.333V26.9167H4.08301V10.6667ZM4.70801 4.41669H19.708C19.8738 4.41669 20.0327 4.48253 20.15 4.59975C20.2672 4.71696 20.333 4.87593 20.333 5.04169V6.91669H4.08301V5.04169C4.08301 4.87593 4.14886 4.71696 4.26607 4.59975C4.38328 4.48253 4.54225 4.41669 4.70801 4.41669ZM19.708 33.1667H4.70801C4.54225 33.1667 4.38328 33.1008 4.26607 32.9836C4.14886 32.8664 4.08301 32.7074 4.08301 32.5417V30.6667H20.333V32.5417C20.333 32.7074 20.2672 32.8664 20.15 32.9836C20.0327 33.1008 19.8738 33.1667 19.708 33.1667Z" fill="#4773AD"/>
</svg>
