<svg width="36" height="35" viewBox="0 0 36 35" fill="none" xmlns="http://www.w3.org/2000/svg">
<path d="M34.7942 22.7037C34.5267 22.5348 34.2208 22.4364 33.9049 22.4175C33.5891 22.3987 33.2737 22.46 32.988 22.5959C32.5946 22.7833 32.1591 22.8647 31.7246 22.832C31.2901 22.7992 30.8717 22.6535 30.5109 22.4092C30.1501 22.1649 29.8594 21.8306 29.6677 21.4394C29.4759 21.0481 29.3897 20.6135 29.4176 20.1787C29.4602 19.5765 29.7167 19.0093 30.1407 18.5795C30.5648 18.1497 31.1285 17.8856 31.7301 17.835C32.1601 17.8028 32.591 17.8836 32.9801 18.0693C33.2658 18.2067 33.5816 18.2694 33.8981 18.2516C34.2145 18.2337 34.5213 18.136 34.7897 17.9674C35.0581 17.7989 35.2795 17.5651 35.433 17.2878C35.5865 17.0105 35.6673 16.6988 35.6676 16.3818V9.70997C35.6676 8.88116 35.3384 8.08631 34.7523 7.50026C34.1663 6.91421 33.3714 6.58497 32.5426 6.58497H27.5426C27.5413 5.73131 27.3657 4.88692 27.0266 4.10348C26.6875 3.32004 26.1922 2.61405 25.5708 2.02872C24.9492 1.44081 24.2127 0.987924 23.4076 0.698578C22.6025 0.409231 21.7462 0.289686 20.8926 0.347466C19.3868 0.446418 17.9673 1.08581 16.8953 2.14803C15.8233 3.21024 15.171 4.62382 15.0583 6.12872C15.0426 6.2834 15.0426 6.42872 15.0426 6.58497H10.0426C9.21384 6.58497 8.41898 6.91421 7.83293 7.50026C7.24688 8.08631 6.91764 8.88116 6.91764 9.70997V14.085C6.06398 14.0864 5.21959 14.262 4.43616 14.601C3.65272 14.9401 2.94673 15.4355 2.36139 16.0568C1.55289 16.9176 1.0048 17.9899 0.780629 19.1493C0.556458 20.3088 0.665375 21.5081 1.09476 22.6082C1.52415 23.7083 2.25644 24.6643 3.20679 25.3653C4.15714 26.0664 5.28667 26.4838 6.46452 26.5693C6.61519 26.5823 6.76643 26.5875 6.91764 26.585V30.96C6.91764 31.7888 7.24688 32.5836 7.83293 33.1697C8.41898 33.7557 9.21384 34.085 10.0426 34.085H32.5426C33.3714 34.085 34.1663 33.7557 34.7523 33.1697C35.3384 32.5836 35.6676 31.7888 35.6676 30.96V24.2897C35.6678 23.9731 35.5878 23.6616 35.435 23.3843C35.2823 23.107 35.0618 22.8728 34.7942 22.7037ZM31.9176 30.335H10.6676V24.2897C10.6677 23.9732 10.5876 23.6619 10.4349 23.3848C10.2823 23.1076 10.0619 22.8736 9.79443 22.7045C9.52695 22.5354 9.22103 22.4368 8.90517 22.4178C8.5893 22.3988 8.27377 22.4601 7.98795 22.5959C7.59677 22.7841 7.1631 22.8665 6.73014 22.835C6.13 22.7846 5.56748 22.5219 5.14363 22.094C4.71978 21.6661 4.46237 21.1012 4.41764 20.5006C4.38869 20.0657 4.47391 19.6309 4.66485 19.2391C4.8558 18.8474 5.14583 18.5124 5.50619 18.2673C5.86656 18.0222 6.28473 17.8756 6.71923 17.8419C7.15374 17.8083 7.58949 17.8889 7.98327 18.0756C8.26927 18.2125 8.58531 18.2746 8.90184 18.2561C9.21836 18.2376 9.52504 18.1392 9.79319 17.97C10.0613 17.8008 10.2822 17.5664 10.4351 17.2886C10.5881 17.0109 10.6681 16.6989 10.6676 16.3818V10.335H17.3395C17.6558 10.3347 17.9669 10.2545 18.2439 10.1017C18.5208 9.94891 18.7546 9.72854 18.9235 9.4611C19.0924 9.19366 19.1909 8.88784 19.2098 8.5721C19.2287 8.25636 19.1674 7.94097 19.0317 7.65528C18.8435 7.26409 18.7611 6.83042 18.7926 6.39747C18.8427 5.79721 19.1053 5.23452 19.5333 4.81061C19.9612 4.38669 20.5263 4.12939 21.127 4.08497C21.5618 4.05587 21.9966 4.14091 22.3884 4.33166C22.7801 4.52241 23.1152 4.81224 23.3605 5.17242C23.6057 5.5326 23.7525 5.95062 23.7864 6.38504C23.8203 6.81946 23.74 7.25519 23.5536 7.64903C23.4164 7.93509 23.354 8.2513 23.3723 8.56805C23.3906 8.8848 23.4889 9.19172 23.6582 9.4601C23.8274 9.72847 24.062 9.9495 24.3399 10.1025C24.6178 10.2555 24.9301 10.3355 25.2473 10.335H31.9176V14.085C31.7614 14.085 31.6161 14.085 31.4645 14.1022C29.8523 14.2219 28.3493 14.9617 27.271 16.1662C26.1927 17.3707 25.6231 18.9461 25.6817 20.5617C25.7404 22.1773 26.4227 23.7072 27.5855 24.8304C28.7483 25.9535 30.301 26.5824 31.9176 26.585V30.335Z" fill="#4773AD"/>
</svg>
