<svg width="41" height="40" viewBox="0 0 41 40" fill="none" xmlns="http://www.w3.org/2000/svg">
<path fill-rule="evenodd" clip-rule="evenodd" d="M17.4373 12.6408L15.1209 18.9387L15.1203 18.9403C14.9685 19.3543 14.7283 19.7302 14.4165 20.0419C14.1048 20.3537 13.7289 20.5938 13.3149 20.7457L13.3132 20.7463L7.01516 23.0626L13.3132 25.3789L13.3149 25.3795C13.7288 25.5313 14.1048 25.7714 14.4165 26.0832C14.7284 26.3951 14.9686 26.7711 15.1204 27.1852L17.4373 33.4843L19.7537 27.1865C19.9055 26.7724 20.1462 26.3951 20.4581 26.0832C20.7699 25.7714 21.146 25.5312 21.56 25.3793L27.8594 23.0626L21.56 20.7458C21.146 20.594 20.7699 20.3538 20.4581 20.0419C20.1463 19.7302 19.9061 19.3543 19.7543 18.9403L19.7537 18.9387L17.4373 12.6408ZM15.6974 8.33825C16.2078 7.98254 16.8151 7.79184 17.4373 7.79184C18.0595 7.79184 18.6667 7.98254 19.1772 8.33825C19.6877 8.69395 20.0769 9.19758 20.2923 9.78125L20.2931 9.78326L23.096 17.404L30.7191 20.2076C31.3028 20.4231 31.8064 20.8122 32.1621 21.3227C32.5179 21.8332 32.7086 22.4404 32.7086 23.0626C32.7086 23.6847 32.5179 24.292 32.1621 24.8024C31.8064 25.3129 31.3028 25.7021 30.7191 25.9175L23.096 28.7211L20.2923 36.3439C20.0769 36.9276 19.6877 37.4312 19.1772 37.7869C18.6667 38.1426 18.0595 38.3333 17.4373 38.3333C16.8151 38.3333 16.2078 38.1426 15.6974 37.7869C15.1869 37.4312 14.7977 36.9276 14.5822 36.3439L11.7786 28.7211L4.1555 25.9175C3.5718 25.7021 3.06816 25.3129 2.71244 24.8024C2.35672 24.292 2.16602 23.6847 2.16602 23.0626C2.16602 22.4404 2.35672 21.8332 2.71244 21.3227C3.06816 20.8122 3.5718 20.4231 4.1555 20.2076L11.7786 17.404L14.5822 9.78125C14.7977 9.19758 15.1869 8.69395 15.6974 8.33825ZM11.6778 17.6779L11.6787 17.6755L11.6778 17.6779ZM22.8221 17.3033L22.8246 17.3042L22.8221 17.3033Z" fill="#85E0A3"/>
<path fill-rule="evenodd" clip-rule="evenodd" d="M27.2216 1.66663C28.2341 1.66663 29.0549 2.48741 29.0549 3.49989V10.833C29.0549 11.8454 28.2341 12.6662 27.2216 12.6662C26.209 12.6662 25.3882 11.8454 25.3882 10.833V3.49989C25.3882 2.48741 26.209 1.66663 27.2216 1.66663Z" fill="#85E0A3"/>
<path fill-rule="evenodd" clip-rule="evenodd" d="M34.5549 10.2219C35.5674 10.2219 36.3882 11.0427 36.3882 12.0551V16.9438C36.3882 17.9563 35.5674 18.7771 34.5549 18.7771C33.5424 18.7771 32.7216 17.9563 32.7216 16.9438V12.0551C32.7216 11.0427 33.5424 10.2219 34.5549 10.2219Z" fill="#85E0A3"/>
<path fill-rule="evenodd" clip-rule="evenodd" d="M21.7216 7.16643C21.7216 6.15394 22.5424 5.33316 23.5549 5.33316H30.8882C31.9008 5.33316 32.7216 6.15394 32.7216 7.16643C32.7216 8.17891 31.9008 8.99969 30.8882 8.99969H23.5549C22.5424 8.99969 21.7216 8.17891 21.7216 7.16643Z" fill="#85E0A3"/>
<path fill-rule="evenodd" clip-rule="evenodd" d="M30.2771 14.4995C30.2771 13.487 31.0979 12.6662 32.1105 12.6662H36.9993C38.0119 12.6662 38.8327 13.487 38.8327 14.4995C38.8327 15.512 38.0119 16.3328 36.9993 16.3328H32.1105C31.0979 16.3328 30.2771 15.512 30.2771 14.4995Z" fill="#85E0A3"/>
</svg>
