<svg width="39" height="35" viewBox="0 0 39 35" fill="none" xmlns="http://www.w3.org/2000/svg">
<path d="M23.3654 0.523849C23.0501 0.369672 22.6978 0.307117 22.3486 0.343303C21.9995 0.37949 21.6675 0.512964 21.3904 0.728536L10.6482 9.08322H3.79199C2.96319 9.08322 2.16833 9.41246 1.58228 9.99851C0.996232 10.5846 0.666992 11.3794 0.666992 12.2082V22.2082C0.666992 23.037 0.996232 23.8319 1.58228 24.4179C2.16833 25.004 2.96319 25.3332 3.79199 25.3332H10.6482L21.3904 33.6879C21.6675 33.9035 21.9995 34.037 22.3486 34.0732C22.6978 34.1094 23.0501 34.0469 23.3655 33.8927C23.6809 33.7385 23.9467 33.4989 24.1325 33.2011C24.3184 32.9033 24.417 32.5593 24.417 32.2082V2.20822C24.417 1.85718 24.3184 1.51319 24.1325 1.21541C23.9466 0.917627 23.6808 0.678017 23.3654 0.523849ZM4.41699 12.8332H9.41699V21.5832H4.41699V12.8332ZM20.667 28.3738L13.167 22.541V11.8754L20.667 6.0426V28.3738ZM31.917 17.2082C31.9172 18.8831 31.3061 20.5005 30.1982 21.7567C30.0353 21.9413 29.8376 22.0921 29.6164 22.2004C29.3952 22.3086 29.1549 22.3723 28.9091 22.3877C28.6633 22.403 28.4169 22.3699 28.184 22.29C27.951 22.2102 27.736 22.0852 27.5514 21.9223C27.3667 21.7594 27.2159 21.5617 27.1077 21.3405C26.9994 21.1193 26.9357 20.8789 26.9204 20.6332C26.905 20.3874 26.9382 20.141 27.018 19.908C27.0979 19.675 27.2228 19.4601 27.3857 19.2754C27.888 18.7048 28.1651 17.9707 28.1651 17.2106C28.1651 16.4504 27.888 15.7163 27.3857 15.1457C27.0735 14.7705 26.92 14.2884 26.9576 13.8017C26.9953 13.3151 27.2213 12.8623 27.5875 12.5396C27.9537 12.2169 28.4313 12.0498 28.9188 12.0737C29.4064 12.0976 29.8653 12.3106 30.1982 12.6676C31.3051 13.9213 31.9162 15.5359 31.917 17.2082ZM38.167 17.2082C38.1689 20.437 36.9788 23.5529 34.8248 25.9582C34.4933 26.3289 34.0281 26.5527 33.5316 26.5804C33.035 26.6081 32.5478 26.4374 32.1771 26.1059C31.8065 25.7744 31.5827 25.3092 31.555 24.8126C31.5273 24.3161 31.698 23.8289 32.0295 23.4582C33.5668 21.7394 34.4168 19.5143 34.4168 17.2082C34.4168 14.9022 33.5668 12.677 32.0295 10.9582C31.8586 10.7759 31.7259 10.5613 31.6392 10.327C31.5524 10.0926 31.5134 9.84335 31.5244 9.59372C31.5353 9.3441 31.5961 9.09919 31.7031 8.87338C31.81 8.64757 31.961 8.44541 32.1472 8.27879C32.3334 8.11217 32.5511 7.98445 32.7873 7.90313C33.0236 7.8218 33.2737 7.78852 33.523 7.80524C33.7723 7.82196 34.0158 7.88833 34.239 8.00047C34.4623 8.1126 34.661 8.26824 34.8232 8.45822C36.9778 10.8633 38.1685 13.9792 38.167 17.2082Z" fill="#4773AD"/>
</svg>
