<?xml version="1.0" standalone="no"?>
<!DOCTYPE svg PUBLIC "-//W3C//DTD SVG 20010904//EN"
 "http://www.w3.org/TR/2001/REC-SVG-20010904/DTD/svg10.dtd">
<svg version="1.0" xmlns="http://www.w3.org/2000/svg"
 width="928.000000pt" height="928.000000pt" viewBox="0 0 928.000000 928.000000"
 preserveAspectRatio="xMidYMid meet">
<metadata>
Created by potrace 1.14, written by Peter Selinger 2001-2017
</metadata>
<g transform="translate(0.000000,928.000000) scale(0.100000,-0.100000)"
fill="#000000" stroke="none">
<path d="M4513 9270 c-13 -5 -23 -7 -23 -3 0 3 -7 0 -15 -7 -8 -7 -15 -9 -15
-6 0 14 -136 -65 -170 -98 -30 -28 -99 -103 -224 -240 -15 -17 -74 -80 -130
-140 -55 -60 -112 -120 -125 -135 -13 -14 -49 -53 -79 -86 -30 -33 -99 -107
-152 -165 -127 -137 -142 -153 -225 -244 -38 -42 -90 -99 -115 -125 -25 -26
-85 -92 -135 -146 -49 -54 -117 -127 -150 -160 -131 -135 -207 -226 -335 -402
-33 -45 -60 -87 -60 -92 0 -5 -4 -11 -9 -13 -9 -3 -122 -187 -172 -278 -13
-25 -28 -48 -34 -52 -5 -4 -6 -8 -2 -8 9 0 -43 -101 -58 -112 -5 -4 -7 -8 -2
-8 4 0 -3 -19 -15 -42 -12 -24 -22 -45 -23 -48 0 -3 -4 -11 -8 -17 -5 -7 -5
-13 0 -13 4 0 4 -4 -2 -8 -5 -4 -16 -23 -23 -42 -30 -77 -84 -226 -86 -235 -3
-12 -25 -84 -33 -105 -8 -20 -11 -31 -17 -60 -7 -31 -11 -50 -30 -125 -8 -33
-17 -76 -20 -95 -3 -19 -8 -46 -11 -60 -3 -14 -8 -41 -10 -60 -2 -19 -6 -44
-9 -55 -13 -66 -20 -208 -21 -410 0 -197 9 -388 20 -405 2 -3 6 -30 10 -60 4
-30 9 -64 10 -75 10 -68 75 -325 100 -395 9 -25 18 -52 20 -60 15 -72 154
-380 250 -555 54 -99 205 -339 216 -343 5 -2 9 -9 9 -16 0 -6 9 -23 19 -36 11
-14 61 -81 112 -150 51 -69 95 -127 98 -130 4 -3 18 -21 32 -40 15 -19 37 -46
49 -60 12 -14 34 -40 48 -59 15 -19 36 -44 47 -57 11 -12 39 -44 61 -71 23
-26 53 -60 67 -75 15 -16 24 -28 22 -28 -2 0 13 -17 33 -38 20 -21 61 -65 91
-97 61 -68 226 -246 318 -343 l62 -66 23 20 c13 10 32 28 43 39 12 11 88 83
169 160 82 77 183 173 224 213 41 39 76 72 77 72 6 0 145 138 145 144 0 4 -17
24 -37 45 -21 21 -78 82 -128 136 -49 53 -101 109 -115 124 -107 114 -303 335
-376 426 -27 33 -53 65 -59 71 -5 6 -19 23 -30 39 -11 15 -31 41 -45 58 -14
17 -55 71 -92 121 -37 50 -72 96 -77 103 -6 7 -11 15 -11 18 0 4 -11 21 -25
39 -14 18 -25 38 -25 44 0 6 -3 12 -8 14 -9 4 -92 136 -92 148 0 4 -3 10 -7
12 -7 3 -98 182 -137 268 -77 173 -146 441 -164 635 -11 133 -5 427 12 511 2
12 7 37 10 55 3 19 10 57 15 84 10 46 13 60 25 113 11 44 86 266 95 276 4 6
12 22 16 36 9 35 128 274 137 278 5 2 8 9 8 15 1 11 67 118 90 144 5 7 10 15
10 18 0 4 57 87 87 125 56 72 120 150 142 171 14 15 71 75 126 134 55 59 114
122 130 140 17 17 71 76 120 130 50 54 95 103 100 109 6 6 64 69 130 141 66
71 129 139 140 151 11 11 67 72 125 135 58 63 126 136 152 164 l47 50 63 -67
c35 -36 104 -110 153 -164 50 -54 106 -114 125 -135 30 -32 78 -85 220 -239
14 -15 51 -56 84 -91 32 -35 103 -111 157 -169 54 -58 107 -116 119 -130 12
-14 56 -61 99 -105 194 -201 384 -481 495 -735 21 -47 44 -100 52 -117 15 -33
73 -203 80 -235 7 -31 13 -52 23 -86 5 -18 10 -35 10 -37 0 -3 2 -18 5 -33 3
-15 8 -45 12 -67 3 -22 7 -51 10 -65 23 -148 24 -475 0 -595 -2 -11 -7 -42
-10 -70 -4 -27 -11 -63 -16 -80 -5 -16 -12 -41 -14 -55 -11 -57 -39 -146 -48
-157 -6 -7 -8 -13 -5 -13 8 0 -36 -116 -78 -207 -19 -40 -31 -73 -27 -73 4 0
2 -4 -4 -8 -6 -4 -21 -28 -32 -53 -12 -25 -44 -86 -73 -135 -29 -49 -58 -101
-66 -116 -8 -16 -19 -28 -24 -28 -6 0 -8 -4 -5 -9 3 -5 -1 -14 -9 -21 -9 -7
-22 -27 -30 -44 -8 -17 -26 -43 -40 -58 -14 -15 -25 -30 -25 -34 0 -7 -136
-193 -149 -204 -3 -3 -19 -23 -36 -45 -35 -48 -37 -51 -76 -95 -17 -19 -45
-52 -62 -74 -18 -21 -43 -50 -56 -65 -12 -14 -51 -57 -85 -95 -122 -138 -205
-225 -466 -486 -297 -296 -509 -500 -522 -500 -4 0 -8 -7 -8 -15 0 -8 -3 -15
-8 -15 -22 0 -698 -661 -1024 -1002 -40 -42 -115 -120 -166 -174 l-93 -96 -83
48 c-88 52 -90 53 -225 153 -150 111 -369 318 -506 477 -32 38 -66 76 -75 85
-8 9 -26 31 -40 49 -14 18 -30 38 -35 44 -6 6 -39 49 -73 96 -35 47 -69 93
-77 103 -8 9 -15 19 -15 21 0 4 -48 79 -83 129 -62 90 -242 431 -300 567 -114
266 -192 544 -223 790 -2 19 -6 49 -9 66 -5 35 -16 143 -20 194 -2 19 -4 35
-5 35 -1 0 -3 25 -5 56 -5 94 -15 250 -21 319 -4 62 -7 131 -21 555 -6 194 -7
1570 -1 1850 2 94 7 176 11 183 5 6 4 12 -1 12 -5 0 -8 12 -6 28 7 45 6 111
-1 122 -3 5 -3 10 2 10 4 0 9 75 10 168 2 92 5 217 7 277 3 61 5 121 5 136 1
23 4 25 44 22 69 -4 118 -11 197 -28 92 -20 105 -23 105 -25 0 -1 11 -4 24 -6
14 -2 38 -11 54 -19 17 -8 35 -15 40 -15 16 0 182 -82 185 -91 2 -5 7 -7 12
-4 4 3 13 -2 20 -10 7 -8 16 -15 21 -15 5 0 17 -6 26 -14 10 -8 40 -31 67 -51
l49 -37 21 25 c11 14 28 34 36 44 58 71 107 129 120 143 8 8 29 33 45 54 33
42 39 49 105 127 25 29 51 61 58 71 8 10 24 30 38 45 13 14 58 68 100 120 l78
95 -32 27 c-64 53 -90 71 -101 71 -6 0 -11 4 -11 9 0 9 -122 88 -205 133 -128
70 -326 158 -354 158 -9 0 -21 4 -27 8 -19 16 -233 74 -319 87 -23 3 -52 8
-65 10 -14 3 -41 7 -60 9 -19 3 -62 8 -95 12 -122 16 -485 8 -589 -12 -11 -2
-38 -6 -61 -9 -22 -4 -58 -11 -80 -17 -22 -6 -45 -12 -50 -13 -24 -5 -102 -45
-129 -67 -48 -38 -115 -111 -110 -120 3 -4 1 -8 -4 -8 -11 0 -58 -103 -67
-145 -9 -46 -15 -138 -19 -283 -2 -74 -7 -136 -9 -139 -3 -3 -2 -16 4 -30 5
-13 6 -22 1 -20 -4 3 -8 -43 -9 -101 -1 -59 -4 -190 -7 -292 -17 -575 -20
-841 -20 -1570 -1 -713 3 -975 19 -1345 12 -269 30 -519 51 -715 2 -25 7 -70
10 -100 3 -30 12 -95 20 -145 8 -49 17 -103 19 -120 10 -75 15 -108 19 -114 3
-3 7 -26 11 -51 4 -25 9 -48 11 -52 3 -4 7 -18 10 -30 9 -39 12 -53 14 -53 2
0 7 -20 15 -59 3 -16 8 -33 11 -38 3 -4 7 -16 9 -26 4 -24 91 -274 108 -314 8
-18 25 -58 37 -88 109 -273 313 -649 482 -888 32 -45 58 -86 58 -91 0 -5 4
-11 8 -13 4 -2 23 -25 42 -52 19 -28 42 -58 50 -67 8 -10 20 -24 25 -31 60
-77 180 -222 204 -246 17 -17 31 -33 31 -37 0 -7 339 -346 390 -390 130 -111
208 -175 214 -175 3 0 19 -11 34 -25 75 -66 323 -221 467 -290 107 -52 260
-108 325 -119 8 -2 31 -6 50 -10 92 -18 212 -10 285 19 11 4 36 14 55 22 95
38 182 112 422 357 351 360 894 903 1031 1031 171 160 611 580 671 641 215
220 383 393 426 440 138 150 216 238 228 255 7 11 27 34 43 52 17 17 75 88
130 157 54 69 111 140 126 158 14 18 56 75 92 125 36 51 69 94 73 95 4 2 6 7
3 12 -2 4 4 15 15 25 11 10 20 22 20 27 0 5 5 14 10 21 27 30 131 199 190 308
100 185 250 521 250 563 0 9 5 16 12 16 6 0 9 2 6 5 -3 3 3 34 14 68 11 34 21
70 24 80 2 9 6 25 9 35 3 9 16 64 29 121 22 92 28 126 41 216 2 11 6 40 10 65
15 97 18 153 19 380 1 212 -5 339 -21 425 -3 17 -7 41 -9 55 -11 83 -24 144
-51 255 -13 55 -26 107 -28 116 -6 29 -46 152 -67 206 -11 29 -21 58 -22 65
-7 34 -106 255 -167 373 -72 140 -120 221 -205 349 -32 48 -67 100 -76 114 -9
13 -21 28 -26 31 -5 3 -14 15 -20 27 -6 12 -27 41 -47 65 -131 158 -124 150
-255 289 -59 63 -121 129 -136 146 -105 115 -235 255 -265 286 -20 21 -35 38
-34 38 2 0 -20 24 -49 53 -28 30 -89 96 -136 147 -47 51 -105 114 -128 139
-24 25 -72 77 -105 114 -34 37 -84 92 -112 121 -27 29 -93 100 -145 157 -177
194 -252 265 -316 297 -34 17 -64 28 -68 25 -3 -4 -6 -2 -6 3 0 12 -7 13 -155
18 -66 3 -130 1 -142 -4z"/>
<path d="M7977 8584 c-1 -1 -45 -5 -97 -8 -52 -3 -115 -8 -140 -11 -64 -9
-151 -23 -180 -30 -14 -3 -41 -8 -60 -11 -19 -3 -38 -8 -43 -11 -4 -2 -20 -7
-35 -9 -41 -7 -261 -82 -312 -106 -25 -11 -49 -21 -55 -22 -33 -7 -349 -184
-365 -205 -3 -4 -35 -28 -72 -54 -37 -26 -70 -52 -73 -57 -5 -8 60 -97 132
-180 12 -14 52 -61 89 -105 90 -109 94 -113 139 -170 22 -27 47 -56 55 -65 9
-9 29 -34 45 -55 17 -22 44 -56 62 -75 17 -19 40 -45 50 -58 l18 -23 27 20
c14 12 31 21 36 21 5 0 12 7 16 15 3 8 12 15 21 15 8 0 15 4 15 8 0 5 19 19
43 31 23 12 60 32 82 44 52 29 162 74 200 83 17 4 35 10 40 14 6 4 57 17 115
28 150 31 235 40 247 28 5 -4 8 -111 19 -506 13 -537 16 -773 16 -1405 0 -715
-4 -1035 -16 -1053 -4 -7 -2 -12 4 -12 6 0 9 -4 6 -9 -3 -5 -8 -71 -11 -147
-5 -132 -7 -171 -21 -378 -14 -217 -29 -389 -39 -447 -2 -13 -6 -44 -9 -69 -3
-25 -8 -56 -10 -70 -3 -14 -7 -41 -10 -60 -6 -37 -12 -69 -21 -110 -4 -14 -8
-35 -11 -47 -2 -12 -9 -34 -14 -49 -6 -14 -8 -30 -4 -35 3 -5 0 -9 -5 -9 -6 0
-10 -3 -9 -7 4 -12 -24 -106 -35 -120 -5 -7 -6 -13 -2 -13 4 0 3 -6 -3 -13 -6
-7 -13 -24 -15 -37 -5 -25 -14 -48 -48 -127 -11 -24 -19 -46 -19 -50 0 -14
-47 -113 -133 -283 -49 -96 -95 -185 -101 -197 -6 -13 -14 -23 -18 -23 -5 0
-8 -6 -8 -14 0 -8 -3 -16 -8 -18 -4 -1 -27 -37 -52 -78 -24 -41 -47 -77 -50
-80 -3 -3 -21 -27 -40 -55 -19 -27 -40 -56 -47 -63 -7 -7 -13 -18 -13 -23 0
-5 -8 -17 -17 -27 -10 -10 -38 -45 -63 -77 -134 -180 -503 -565 -541 -565 -5
0 -9 -7 -9 -15 0 -8 -4 -15 -9 -15 -4 0 -24 -13 -42 -30 -19 -16 -37 -30 -40
-30 -3 0 -15 -8 -27 -17 -54 -47 -63 -53 -71 -53 -5 0 -11 -3 -13 -8 -7 -17
-214 -142 -236 -142 -12 0 -7 -5 -137 135 -55 59 -122 131 -150 160 -179 189
-270 288 -273 296 -6 16 -23 10 -51 -18 -16 -16 -90 -86 -166 -158 -75 -71
-158 -150 -184 -175 -26 -25 -103 -96 -169 -159 -67 -63 -122 -120 -122 -126
0 -6 24 -36 53 -67 66 -70 289 -306 387 -411 142 -152 278 -284 340 -332 52
-40 144 -94 173 -101 4 -1 8 -2 10 -4 4 -3 31 -10 97 -23 79 -16 158 -13 270
8 105 20 356 126 491 206 60 36 261 169 269 178 3 3 39 31 80 63 41 31 86 66
100 78 14 11 52 44 85 73 136 117 422 414 541 562 26 33 50 62 54 65 3 3 17
21 30 40 14 19 32 42 40 51 8 9 33 42 55 74 22 32 45 63 50 69 50 54 281 432
350 571 16 33 32 62 35 65 10 10 65 134 63 142 -2 4 0 8 5 8 4 0 13 15 21 33
7 17 19 46 26 62 27 61 97 235 99 247 2 7 6 20 9 28 4 8 16 42 27 75 12 33 24
67 27 75 3 8 7 22 8 30 1 8 12 44 23 80 12 36 23 77 26 92 3 15 7 31 9 35 8
13 48 213 62 308 4 22 8 51 10 65 15 98 21 155 40 345 11 119 14 154 30 420
23 376 30 717 29 1520 0 429 -3 908 -7 1065 -11 474 -23 895 -26 895 -1 0 -4
88 -7 195 -5 197 -17 315 -35 336 -5 7 -8 16 -7 20 5 15 -59 117 -99 159 -73
76 -175 128 -278 141 -11 1 -20 3 -20 4 0 1 -11 3 -25 5 -14 2 -43 6 -65 9
-88 12 -401 27 -408 20z"/>
</g>
</svg>
