<svg width="48" height="48" viewBox="0 0 48 48" fill="none" xmlns="http://www.w3.org/2000/svg">
<g clip-path="url(#clip0_2653_33002)">
<rect x="0.5" y="0.5" width="47" height="47" rx="23.5" stroke="#CCCCCC"/>
<path d="M28.7408 23.2696C28.6547 23.2283 28.5672 23.1886 28.4785 23.1505C28.3242 20.3061 26.7699 18.6776 24.1601 18.6609C24.1483 18.6609 24.1365 18.6609 24.1247 18.6609C22.5637 18.6609 21.2654 19.3272 20.4664 20.5397L21.9017 21.5243C22.4986 20.6186 23.4354 20.4255 24.1254 20.4255C24.1333 20.4255 24.1413 20.4255 24.1492 20.4256C25.0085 20.4311 25.657 20.6809 26.0767 21.1681C26.3821 21.5228 26.5864 22.013 26.6875 22.6316C25.9256 22.5022 25.1017 22.4623 24.2208 22.5128C21.7396 22.6558 20.1444 24.1029 20.2515 26.1137C20.3059 27.1337 20.814 28.0112 21.6823 28.5845C22.4164 29.0691 23.3619 29.306 24.3445 29.2524C25.6422 29.1812 26.6602 28.6861 27.3704 27.7808C27.9098 27.0933 28.2509 26.2024 28.4016 25.0798C29.02 25.453 29.4783 25.9442 29.7315 26.5346C30.1619 27.5382 30.187 29.1875 28.8413 30.5321C27.6622 31.71 26.2449 32.2196 24.103 32.2353C21.727 32.2177 19.9301 31.4557 18.7618 29.9705C17.6678 28.5798 17.1024 26.571 17.0813 24C17.1024 21.4289 17.6678 19.4202 18.7618 18.0294C19.9301 16.5443 21.727 15.7823 24.1029 15.7646C26.4961 15.7824 28.3244 16.5481 29.5374 18.0404C30.1322 18.7722 30.5806 19.6926 30.8763 20.7657L32.5582 20.3169C32.1999 18.9961 31.636 17.8579 30.8687 16.914C29.3136 15.0007 27.0393 14.0203 24.1088 14H24.0971C21.1726 14.0203 18.9237 15.0044 17.4128 16.9249C16.0684 18.634 15.3749 21.0121 15.3516 23.993L15.3516 24L15.3516 24.007C15.3749 26.9879 16.0684 29.366 17.4128 31.0751C18.9237 32.9956 21.1726 33.9798 24.0971 34H24.1088C26.7089 33.982 28.5416 33.3013 30.0514 31.7928C32.0267 29.8194 31.9672 27.3457 31.3161 25.8272C30.8491 24.7382 29.9585 23.8538 28.7408 23.2696ZM24.2516 27.4903C23.1641 27.5516 22.0343 27.0634 21.9786 26.0179C21.9373 25.2427 22.5303 24.3777 24.3184 24.2747C24.5231 24.2629 24.7241 24.2571 24.9215 24.2571C25.5709 24.2571 26.1785 24.3202 26.7309 24.4409C26.5249 27.0141 25.3164 27.4319 24.2516 27.4903Z" fill="black"/>
</g>
<defs>
<clipPath id="clip0_2653_33002">
<rect width="48" height="48" rx="24" fill="white"/>
</clipPath>
</defs>
</svg>
