<svg width="48" height="48" viewBox="0 0 48 48" fill="none" xmlns="http://www.w3.org/2000/svg">
<g clip-path="url(#clip0_2653_32986)">
<rect x="0.5" y="0.5" width="47" height="47" rx="23.5" stroke="#CCCCCC"/>
<path d="M34 24.0611C34 18.5045 29.5229 14 24 14C18.4771 14 14 18.5045 14 24.0611C14 29.0828 17.6568 33.2452 22.4375 34V26.9694H19.8984V24.0611H22.4375V21.8445C22.4375 19.323 23.9305 17.9301 26.2146 17.9301C27.3084 17.9301 28.4531 18.1266 28.4531 18.1266V20.6026H27.1922C25.95 20.6026 25.5625 21.3782 25.5625 22.1747V24.0611H28.3359L27.8926 26.9694H25.5625V34C30.3432 33.2452 34 29.0828 34 24.0611Z" fill="#0A0A0A"/>
</g>
<defs>
<clipPath id="clip0_2653_32986">
<rect width="48" height="48" rx="24" fill="white"/>
</clipPath>
</defs>
</svg>
