<svg width="48" height="48" viewBox="0 0 48 48" fill="none" xmlns="http://www.w3.org/2000/svg">
<rect x="0.5" y="0.5" width="47" height="47" rx="23.5" stroke="#CCCCCC"/>
<path d="M32.2154 14.5H15.879C15.1365 14.5 14.5 15.1333 14.5 15.8722V32.1278C14.5 32.8667 15.1365 33.5 15.879 33.5H32.1093C32.8519 33.5 33.4884 32.8667 33.4884 32.1278V15.8722C33.5945 15.1333 32.958 14.5 32.2154 14.5ZM20.1223 30.65H17.3642V21.5722H20.2283V30.65H20.1223ZM18.7432 20.4111C17.7885 20.4111 17.152 19.6722 17.152 18.7222C17.152 17.7722 17.8946 17.1389 18.7432 17.1389C19.6979 17.1389 20.3344 17.8778 20.3344 18.7222C20.4405 19.6722 19.6979 20.4111 18.7432 20.4111ZM30.7303 30.65H27.8661V26.2167C27.8661 25.1611 27.8661 23.7889 26.381 23.7889C24.8959 23.7889 24.6837 24.95 24.6837 26.1111V30.5444H21.9256V21.5722H24.6837V22.8389C25.108 22.1 25.9567 21.3611 27.3357 21.3611C30.1999 21.3611 30.7303 23.2611 30.7303 25.6889V30.65Z" fill="#0A0A0A"/>
</svg>
