<svg width="24" height="24" viewBox="0 0 24 24" fill="none" xmlns="http://www.w3.org/2000/svg">
<path d="M17.5006 14.869C17.3479 15.6242 16.9392 16.3034 16.3434 16.7919C15.7476 17.2803 15.0013 17.548 14.2309 17.5496C12.1681 17.5474 10.1903 16.727 8.73169 15.2683C7.27304 13.8097 6.4526 11.8319 6.4504 9.76909C6.45199 8.99867 6.71965 8.25244 7.2081 7.65664C7.69655 7.06085 8.37581 6.65206 9.13097 6.49943C9.36969 6.45219 9.61732 6.4846 9.83585 6.59168C10.0544 6.69877 10.2317 6.87462 10.3407 7.09223L11.404 9.2226C11.4912 9.39761 11.5307 9.59253 11.5185 9.78768C11.5063 9.98284 11.4428 10.1713 11.3345 10.3341L10.5454 11.5179C10.9517 12.3651 11.6349 13.0483 12.4821 13.4546L13.6659 12.6655C13.8287 12.5572 14.0172 12.4937 14.2123 12.4815C14.4075 12.4693 14.6024 12.5088 14.7774 12.596L16.9078 13.6593C17.1254 13.7683 17.3012 13.9456 17.4083 14.1642C17.5154 14.3827 17.5478 14.6303 17.5006 14.869ZM22.0114 11.9921C22.0118 13.7056 21.572 15.3905 20.7342 16.8853C19.8964 18.38 18.6887 19.6345 17.2268 20.5285C15.7649 21.4224 14.098 21.9259 12.3857 21.9906C10.6733 22.0553 8.97312 21.6791 7.44797 20.898L4.44414 21.903C4.11713 22.0132 3.76585 22.0299 3.42987 21.9511C3.0939 21.8724 2.78659 21.7014 2.54259 21.4574C2.29858 21.2134 2.12758 20.9061 2.04885 20.5701C1.97013 20.2342 1.98681 19.8829 2.09702 19.5559L3.09829 16.552C2.41073 15.2052 2.03744 13.7201 2.00649 12.2082C1.97555 10.6964 2.28775 9.19721 2.91962 7.8234C3.5515 6.4496 4.48661 5.23691 5.65464 4.27654C6.82267 3.31616 8.19322 2.63308 9.66326 2.27865C11.1333 1.92423 12.6645 1.90769 14.1419 2.23027C15.6192 2.55284 17.0042 3.20615 18.1927 4.14107C19.3813 5.07599 20.3423 6.26818 21.0038 7.62802C21.6652 8.98785 22.0097 10.4799 22.0114 11.9921ZM19.7884 11.9921C19.788 10.7987 19.513 9.62133 18.9847 8.55117C18.4565 7.48101 17.6891 6.54672 16.742 5.82056C15.7949 5.09441 14.6935 4.59586 13.5229 4.36348C12.3523 4.1311 11.1439 4.17112 9.99128 4.48044C8.83863 4.78977 7.77259 5.3601 6.87562 6.14734C5.97865 6.93457 5.27479 7.91759 4.81851 9.02035C4.36222 10.1231 4.16574 11.3161 4.24425 12.5069C4.32276 13.6978 4.67416 14.8546 5.27128 15.8879C5.3502 16.0242 5.39927 16.1756 5.41524 16.3323C5.4312 16.4889 5.41371 16.6472 5.3639 16.7966L4.44414 19.5559L7.20344 18.6361C7.31695 18.5983 7.43578 18.5789 7.55541 18.5787C7.75063 18.579 7.94231 18.6308 8.11117 18.7287C9.29401 19.4132 10.6363 19.774 12.0029 19.7749C13.3694 19.7757 14.7122 19.4167 15.8959 18.7338C17.0796 18.0509 18.0626 17.0682 18.7459 15.8848C19.4293 14.7013 19.7888 13.3587 19.7884 11.9921Z" fill="black"/>
</svg>
