<svg width="153" height="32" viewBox="0 0 153 32" fill="none" xmlns="http://www.w3.org/2000/svg">
<path d="M9.494 31C9.44028 31 9.38596 30.9975 9.32981 30.992L9.3121 30.9907C9.24984 30.987 9.18759 30.9796 9.12594 30.9684C7.70864 30.711 5.88604 29.4591 4.24962 27.6188C2.4374 25.5804 1.12142 23.1187 0.542785 20.6867C0.146038 19.0135 -0.0352446 15.6755 0.00565083 10.7646C0.0355594 7.17419 0.176557 3.99841 0.177778 3.96685C0.208907 3.27253 0.683172 2.68032 1.34665 2.50582C1.49498 2.46683 5.01381 1.58068 8.0358 4.12465L6.03925 6.56156C5.07424 5.74905 4.01828 5.5238 3.24493 5.49038C3.10088 9.60925 2.97393 17.3909 3.58064 19.9442C4.03904 21.8724 5.1011 23.8446 6.57089 25.4981C7.60121 26.6571 8.56256 27.349 9.17843 27.6608C9.3298 27.5037 9.50559 27.3155 9.67955 27.1311C10.3998 26.3638 11.4887 25.2041 13.1178 23.6565C16.5408 20.4039 19.4169 17.4577 19.9339 14.3432C20.2098 12.6805 19.9187 11.0288 19.0684 9.43536C18.4208 8.22186 17.67 7.4836 17.6188 7.4341C17.5846 7.40254 17.562 7.37964 17.5303 7.34437L14.3099 3.80596L11.0926 7.34128C11.0608 7.37593 11.0383 7.39944 11.0047 7.431C10.9546 7.47927 10.2033 8.21752 9.55503 9.43227C8.70478 11.0257 8.41302 12.6774 8.68891 14.3407C9.10213 16.8327 10.8899 18.9076 13.3705 21.5673L11.0999 23.7437C8.80854 21.2864 6.21077 18.5011 5.60771 14.8661C4.70374 9.41618 8.30925 5.66551 8.83112 5.1556L13.0574 0.510122C13.3589 0.179053 13.785 -0.00721197 14.2281 0.000213868L14.4399 0.00330797C14.8684 0.00949617 15.2755 0.193905 15.566 0.513216L19.7923 5.15746C20.3142 5.66737 23.9203 9.41803 23.0157 14.868C22.337 18.9578 19.0995 22.3142 15.2548 25.9671C13.6904 27.4535 12.6387 28.5736 11.9428 29.3143C11.5259 29.7586 11.2244 30.0792 10.9693 30.315C10.755 30.5124 10.2283 31 9.494 31ZM19.2521 30.9932C19.3345 30.9913 19.4169 30.9833 19.4981 30.9684C20.9154 30.711 22.738 29.4591 24.3738 27.6188C26.1854 25.5804 27.502 23.1187 28.0807 20.6867C28.4786 19.0141 28.6599 15.6755 28.6184 10.7652C28.5885 7.17481 28.4475 3.99903 28.4457 3.96747C28.4139 3.26263 27.9262 2.66361 27.2487 2.49901C27.0992 2.4625 23.5516 1.63761 20.5901 4.12341L22.5824 6.56342C23.5309 5.76762 24.5942 5.54237 25.3791 5.50524C25.5232 9.62782 25.6495 17.3934 25.0428 19.9442C24.5844 21.8724 23.5223 23.8452 22.0526 25.4981C21.0033 26.6782 20.0261 27.3737 19.4121 27.6769C19.2033 27.4579 18.9286 27.1608 18.6314 26.8391C18.3305 26.5136 17.9563 26.1082 17.5077 25.6274L15.2389 27.8057C15.6814 28.2797 16.0525 28.6807 16.3504 29.0037C16.9614 29.6652 17.33 30.065 17.6175 30.3286C17.8287 30.5229 18.3469 30.9994 19.1008 30.9988C19.1496 30.9988 19.2002 30.9969 19.2509 30.9926L19.2521 30.9932Z" fill="#FA8072"/>
<path d="M50.0879 25.7654C46.1968 25.7654 43.2658 23.4589 43.2658 19.6146V7.46675H47.3086V19.2558C47.3086 20.6141 47.9402 21.7674 50.0879 21.7674C52.2356 21.7674 52.8673 20.6141 52.8673 19.2558V7.46675H56.91V19.6146C56.91 23.4589 53.9791 25.7654 50.0879 25.7654Z" fill="black"/>
<path d="M67.0363 12.2336C70.3463 12.2336 73.0751 15.1809 73.0751 18.9995C73.0751 22.8182 70.3463 25.7654 67.0363 25.7654C65.3434 25.7654 64.1053 25.176 63.2715 24.2021V30.5323H59.4815V12.5924H63.2715V13.797C64.1053 12.8231 65.3434 12.2336 67.0363 12.2336ZM66.2783 22.1262C68.0217 22.1262 69.2851 20.9217 69.2851 18.9995C69.2851 17.0774 68.0217 15.8729 66.2783 15.8729C64.5349 15.8729 63.2715 17.0774 63.2715 18.9995C63.2715 20.9217 64.5349 22.1262 66.2783 22.1262Z" fill="black"/>
<path d="M78.3474 16.3342C78.3474 17.795 84.5631 16.8211 84.5631 21.5624C84.5631 24.5096 82.0364 25.7654 79.3075 25.7654C76.7808 25.7654 74.8605 24.7916 73.8751 22.7157L77.1598 20.8191C77.4883 21.793 78.1958 22.3312 79.3075 22.3312C80.2171 22.3312 80.6719 22.0493 80.6719 21.5367C80.6719 20.1272 74.4562 20.8704 74.4562 16.4367C74.4562 13.6432 76.7808 12.2336 79.4086 12.2336C81.4552 12.2336 83.2744 13.1563 84.3357 14.9759L81.1015 16.7442C80.7477 16.0779 80.2424 15.6166 79.4086 15.6166C78.7516 15.6166 78.3474 15.8729 78.3474 16.3342Z" fill="black"/>
<path d="M93.2706 16.2829H90.6681V20.8191C90.6681 21.9212 91.603 22.0237 93.2706 21.9212V25.4066C88.3183 25.9192 86.8781 24.4071 86.8781 20.8191V16.2829H84.8567V12.5924H86.8781V10.1577L90.6681 9.00445V12.5924H93.2706V16.2829Z" fill="black"/>
<path d="M99.2355 14.8734C99.7409 13.1563 101.434 12.3361 103.026 12.3361V16.693C101.459 16.4367 99.2355 17.0774 99.2355 19.6146V25.4066H95.4455V12.5924H99.2355V14.8734Z" fill="black"/>
<path d="M107.595 20.5372C108.075 21.8699 109.237 22.3312 110.627 22.3312C111.663 22.3312 112.547 21.9212 113.053 21.3573L116.085 23.1257C114.847 24.8684 112.977 25.7654 110.577 25.7654C106.256 25.7654 103.578 22.8182 103.578 18.9995C103.578 15.1809 106.306 12.2336 110.299 12.2336C113.988 12.2336 116.716 15.1296 116.716 18.9995C116.716 19.5377 116.666 20.0503 116.565 20.5372H107.595ZM107.519 17.6669H112.952C112.547 16.1804 111.41 15.6422 110.273 15.6422C108.833 15.6422 107.873 16.3598 107.519 17.6669Z" fill="black"/>
<path d="M127.697 12.5924H131.487V25.4066H127.697V24.2021C126.863 25.176 125.625 25.7654 123.932 25.7654C120.622 25.7654 117.893 22.8182 117.893 18.9995C117.893 15.1809 120.622 12.2336 123.932 12.2336C125.625 12.2336 126.863 12.8231 127.697 13.797V12.5924ZM124.69 22.1262C126.434 22.1262 127.697 20.9217 127.697 18.9995C127.697 17.0774 126.434 15.8729 124.69 15.8729C122.947 15.8729 121.683 17.0774 121.683 18.9995C121.683 20.9217 122.947 22.1262 124.69 22.1262Z" fill="black"/>
<path d="M148.199 12.2336C151.105 12.2336 153 14.3352 153 17.5387V25.4066H149.21V17.8719C149.21 16.5905 148.604 15.7704 147.391 15.7704C146.127 15.7704 145.42 16.6673 145.42 18.1794V25.4066H141.63V17.8719C141.63 16.5905 141.023 15.7704 139.811 15.7704C138.547 15.7704 137.84 16.6673 137.84 18.1794V25.4066H134.05V12.5924H137.84V13.7713C138.421 12.9 139.533 12.2336 141.226 12.2336C142.716 12.2336 143.828 12.8487 144.536 13.9251C145.243 12.9 146.405 12.2336 148.199 12.2336Z" fill="black"/>
</svg>
