<svg width="153" height="32" viewBox="0 0 153 32" fill="none" xmlns="http://www.w3.org/2000/svg">
<g id="Upstream-logo">
<g id="Vector">
<path d="M9.494 30.7987C9.44028 30.7987 9.38596 30.7962 9.32981 30.7907L9.3121 30.7895C9.24984 30.7858 9.18759 30.7784 9.12594 30.7673C7.70864 30.5116 5.88604 29.2678 4.24962 27.4394C2.4374 25.4143 1.12142 22.9686 0.542785 20.5524C0.146038 18.89 -0.0352446 15.5738 0.00565083 10.6947C0.0355594 7.12761 0.176557 3.97245 0.177778 3.94109C0.208907 3.25128 0.683172 2.66292 1.34665 2.48954C1.49498 2.45081 5.01381 1.57042 8.0358 4.09787L6.03925 6.51895C5.07424 5.71172 4.01828 5.48793 3.24493 5.45473C3.10088 9.54685 2.97393 17.278 3.58064 19.8147C4.03904 21.7304 5.1011 23.6897 6.57089 25.3325C7.60121 26.484 8.56256 27.1714 9.17843 27.4812C9.3298 27.3251 9.50559 27.1382 9.67955 26.955C10.3998 26.1926 11.4887 25.0405 13.1178 23.5028C16.5408 20.2715 19.4169 17.3444 19.9339 14.2501C20.2098 12.5981 19.9187 10.9572 19.0684 9.37409C18.4208 8.16847 17.67 7.43501 17.6188 7.38582C17.5846 7.35447 17.562 7.33172 17.5303 7.29668L14.3099 3.78124L11.0926 7.2936C11.0608 7.32803 11.0383 7.3514 11.0047 7.38275C10.9546 7.43071 10.2033 8.16416 9.55503 9.37102C8.70478 10.9541 8.41302 12.595 8.68891 14.2476C9.10213 16.7234 10.8899 18.7849 13.3705 21.4273L11.0999 23.5895C8.80854 21.1482 6.21077 18.3809 5.60771 14.7696C4.70374 9.35503 8.30925 5.62872 8.83112 5.12213L13.0574 0.506809C13.3589 0.17789 13.785 -0.00716514 14.2281 0.000212479L14.4399 0.00328649C14.8684 0.0094345 15.2755 0.192645 15.566 0.509883L19.7923 5.12397C20.3142 5.63057 23.9203 9.35688 23.0157 14.7714C22.337 18.8347 19.0995 22.1693 15.2548 25.7985C13.6904 27.2753 12.6387 28.3881 11.9428 29.124C11.5259 29.5654 11.2244 29.8839 10.9693 30.1181C10.755 30.3142 10.2283 30.7987 9.494 30.7987ZM19.2521 30.7919C19.3345 30.7901 19.4169 30.7821 19.4981 30.7673C20.9154 30.5116 22.738 29.2678 24.3738 27.4394C26.1854 25.4143 27.502 22.9686 28.0807 20.5524C28.4786 18.8906 28.6599 15.5738 28.6184 10.6953C28.5885 7.12822 28.4475 3.97306 28.4457 3.94171C28.4139 3.24145 27.9262 2.64632 27.2487 2.48278C27.0992 2.44651 23.5516 1.62698 20.5901 4.09664L22.5824 6.5208C23.5309 5.73016 24.5942 5.50638 25.3791 5.46949C25.5232 9.5653 25.6495 17.2804 25.0428 19.8147C24.5844 21.7304 23.5223 23.6904 22.0526 25.3325C21.0033 26.5049 20.0261 27.196 19.4121 27.4972C19.2033 27.2796 18.9286 26.9845 18.6314 26.6648C18.3305 26.3414 17.9563 25.9387 17.5077 25.461L15.2389 27.6251C15.6814 28.096 16.0525 28.4944 16.3504 28.8153C16.9614 29.4726 17.33 29.8697 17.6175 30.1316C17.8287 30.3247 18.3469 30.7981 19.1008 30.7975C19.1496 30.7975 19.2002 30.7956 19.2509 30.7913L19.2521 30.7919Z" fill="#FA8072"/>
<path d="M50.0879 25.5981C46.1968 25.5981 43.2658 23.3065 43.2658 19.4872V7.41826H47.3086V19.1308C47.3086 20.4803 47.9402 21.6261 50.0879 21.6261C52.2356 21.6261 52.8673 20.4803 52.8673 19.1308V7.41826H56.91V19.4872C56.91 23.3065 53.9791 25.5981 50.0879 25.5981Z" fill="white"/>
<path d="M67.0363 12.1542C70.3463 12.1542 73.0751 15.0823 73.0751 18.8762C73.0751 22.67 70.3463 25.5981 67.0363 25.5981C65.3434 25.5981 64.1053 25.0125 63.2715 24.0449V30.3341H59.4815V12.5107H63.2715V13.7074C64.1053 12.7398 65.3434 12.1542 67.0363 12.1542ZM66.2783 21.9825C68.0217 21.9825 69.2851 20.7858 69.2851 18.8762C69.2851 16.9665 68.0217 15.7698 66.2783 15.7698C64.5349 15.7698 63.2715 16.9665 63.2715 18.8762C63.2715 20.7858 64.5349 21.9825 66.2783 21.9825Z" fill="white"/>
<path d="M78.3474 16.2281C78.3474 17.6794 84.5631 16.7119 84.5631 21.4224C84.5631 24.3505 82.0364 25.5981 79.3075 25.5981C76.7808 25.5981 74.8605 24.6306 73.8751 22.5681L77.1598 20.684C77.4883 21.6515 78.1958 22.1862 79.3075 22.1862C80.2171 22.1862 80.6719 21.9061 80.6719 21.3969C80.6719 19.9965 74.4562 20.7349 74.4562 16.33C74.4562 13.5546 76.7808 12.1542 79.4086 12.1542C81.4552 12.1542 83.2744 13.0708 84.3357 14.8786L81.1015 16.6355C80.7477 15.9735 80.2424 15.5152 79.4086 15.5152C78.7516 15.5152 78.3474 15.7698 78.3474 16.2281Z" fill="white"/>
<path d="M93.2706 16.1772H90.6681V20.684C90.6681 21.7788 91.603 21.8807 93.2706 21.7788V25.2417C88.3183 25.7509 86.8781 24.2486 86.8781 20.684V16.1772H84.8567V12.5107H86.8781V10.0918L90.6681 8.94598V12.5107H93.2706V16.1772Z" fill="white"/>
<path d="M99.2355 14.7768C99.7409 13.0708 101.434 12.256 103.026 12.256V16.5846C101.459 16.33 99.2355 16.9665 99.2355 19.4872V25.2417H95.4455V12.5107H99.2355V14.7768Z" fill="white"/>
<path d="M107.595 20.4039C108.075 21.7279 109.237 22.1862 110.627 22.1862C111.663 22.1862 112.547 21.7788 113.053 21.2187L116.085 22.9755C114.847 24.707 112.977 25.5981 110.577 25.5981C106.256 25.5981 103.578 22.67 103.578 18.8762C103.578 15.0823 106.306 12.1542 110.299 12.1542C113.988 12.1542 116.716 15.0314 116.716 18.8762C116.716 19.4109 116.666 19.9201 116.565 20.4039H107.595ZM107.519 17.5521H112.952C112.547 16.0753 111.41 15.5406 110.273 15.5406C108.833 15.5406 107.873 16.2536 107.519 17.5521Z" fill="white"/>
<path d="M127.697 12.5107H131.487V25.2417H127.697V24.0449C126.863 25.0125 125.625 25.5981 123.932 25.5981C120.622 25.5981 117.893 22.67 117.893 18.8762C117.893 15.0823 120.622 12.1542 123.932 12.1542C125.625 12.1542 126.863 12.7398 127.697 13.7074V12.5107ZM124.69 21.9825C126.434 21.9825 127.697 20.7858 127.697 18.8762C127.697 16.9665 126.434 15.7698 124.69 15.7698C122.947 15.7698 121.683 16.9665 121.683 18.8762C121.683 20.7858 122.947 21.9825 124.69 21.9825Z" fill="white"/>
<path d="M148.199 12.1542C151.105 12.1542 153 14.2421 153 17.4248V25.2417H149.21V17.7558C149.21 16.4827 148.604 15.6679 147.391 15.6679C146.127 15.6679 145.42 16.5591 145.42 18.0614V25.2417H141.63V17.7558C141.63 16.4827 141.023 15.6679 139.811 15.6679C138.547 15.6679 137.84 16.5591 137.84 18.0614V25.2417H134.05V12.5107H137.84V13.6819C138.421 12.8162 139.533 12.1542 141.226 12.1542C142.716 12.1542 143.828 12.7653 144.536 13.8347C145.243 12.8162 146.405 12.1542 148.199 12.1542Z" fill="white"/>
</g>
</g>
</svg>
