<svg width="24" height="24" viewBox="0 0 24 24" fill="none" xmlns="http://www.w3.org/2000/svg">
<path fill-rule="evenodd" clip-rule="evenodd" d="M9.1482 10.9628C9.1482 10.2878 9.6954 9.7406 10.3704 9.7406H13.6296C14.3046 9.7406 14.8518 10.2878 14.8518 10.9628C14.8518 11.6378 14.3046 12.185 13.6296 12.185H10.3704C9.6954 12.185 9.1482 11.6378 9.1482 10.9628Z" fill="black"/>
<path fill-rule="evenodd" clip-rule="evenodd" d="M3.4446 8.111V20.333H20.5554V8.111H3.4446ZM1.0002 7.7036C1.0002 6.57859 1.9122 5.6666 3.0372 5.6666H20.9628C22.0878 5.6666 22.9998 6.57859 22.9998 7.7036V20.7404C22.9998 21.8654 22.0878 22.7774 20.9628 22.7774H3.0372C1.9122 22.7774 1.0002 21.8654 1.0002 20.7404V7.7036Z" fill="black"/>
<path fill-rule="evenodd" clip-rule="evenodd" d="M7.53907 2.83527C8.07389 2.30046 8.79926 2 9.5556 2H14.4444C15.2007 2 15.9261 2.30046 16.4609 2.83527C16.9957 3.37009 17.2962 4.09545 17.2962 4.8518V6.8888C17.2962 7.5638 16.749 8.111 16.074 8.111C15.399 8.111 14.8518 7.5638 14.8518 6.8888V4.8518C14.8518 4.74375 14.8089 4.64013 14.7325 4.56372C14.6561 4.48732 14.5524 4.4444 14.4444 4.4444H9.5556C9.44755 4.4444 9.34393 4.48732 9.26753 4.56372C9.19112 4.64013 9.1482 4.74375 9.1482 4.8518V6.8888C9.1482 7.5638 8.601 8.111 7.926 8.111C7.251 8.111 6.7038 7.5638 6.7038 6.8888V4.8518C6.7038 4.09545 7.00426 3.37009 7.53907 2.83527Z" fill="black"/>
<path fill-rule="evenodd" clip-rule="evenodd" d="M22.8355 11.8082C23.1735 12.3924 22.9739 13.1401 22.3897 13.4782C19.2322 15.305 15.6479 16.2644 12 16.259C8.35238 16.2645 4.7681 15.3055 1.6105 13.4793C1.02619 13.1413 0.826466 12.3937 1.16441 11.8094C1.50235 11.2251 2.24999 11.0254 2.8343 11.3633C5.61934 12.974 8.78077 13.8197 11.9981 13.8146H12.0019C15.2193 13.8197 18.3807 12.9736 21.1655 11.3624C21.7498 11.0243 22.4974 11.2239 22.8355 11.8082Z" fill="black"/>
</svg>
