<svg width="24" height="24" viewBox="0 0 24 24" fill="none" xmlns="http://www.w3.org/2000/svg">
<path d="M15.2272 16.1024C15.8821 15.4624 16.3311 14.6423 16.5169 13.7466C16.7028 12.8509 16.6172 11.9202 16.271 11.0733C15.9247 10.2264 15.3336 9.50157 14.5729 8.99137C13.8122 8.48118 12.9166 8.2087 12.0001 8.2087C11.0837 8.2087 10.188 8.48118 9.42732 8.99137C8.66666 9.50157 8.07551 10.2264 7.72926 11.0733C7.38302 11.9202 7.29738 12.8509 7.48327 13.7466C7.66916 14.6423 8.11815 15.4624 8.77298 16.1024C7.66428 16.6906 6.7425 17.5766 6.11179 18.6603C5.97672 18.9039 5.94285 19.1907 6.01748 19.459C6.09211 19.7272 6.26926 19.9556 6.51083 20.0948C6.7524 20.234 7.03907 20.2731 7.30917 20.2035C7.57928 20.1339 7.81122 19.9613 7.9551 19.7227C8.37106 19.0213 8.9629 18.4401 9.67234 18.0363C10.3818 17.6326 11.1843 17.4203 12.001 17.4203C12.8176 17.4203 13.6202 17.6326 14.3297 18.0363C15.0391 18.4401 15.6309 19.0213 16.0469 19.7227C16.1154 19.8462 16.2078 19.9549 16.3188 20.0423C16.4298 20.1298 16.5572 20.1943 16.6935 20.232C16.8297 20.2698 16.9722 20.2801 17.1125 20.2623C17.2528 20.2445 17.3881 20.1989 17.5106 20.1283C17.633 20.0578 17.7402 19.9635 17.8258 19.8511C17.9113 19.7387 17.9736 19.6105 18.0089 19.4738C18.0443 19.3371 18.052 19.1948 18.0316 19.0551C18.0112 18.9154 17.9631 18.7812 17.8902 18.6603C17.259 17.5764 16.3366 16.6903 15.2272 16.1024ZM9.51633 12.8176C9.51633 12.3273 9.662 11.848 9.93492 11.4403C10.2078 11.0326 10.5958 10.7148 11.0496 10.5272C11.5035 10.3396 12.0029 10.2905 12.4847 10.3861C12.9665 10.4818 13.409 10.7179 13.7564 11.0646C14.1038 11.4113 14.3403 11.853 14.4362 12.3339C14.532 12.8148 14.4828 13.3133 14.2948 13.7663C14.1068 14.2193 13.7885 14.6065 13.38 14.8789C12.9716 15.1513 12.4914 15.2967 12.0001 15.2967C11.3414 15.2967 10.7096 15.0355 10.2438 14.5706C9.77802 14.1056 9.51633 13.4751 9.51633 12.8176ZM22.5748 13.6667C22.463 13.7506 22.3357 13.8117 22.2002 13.8464C22.0648 13.8812 21.9237 13.889 21.7853 13.8693C21.6468 13.8497 21.5135 13.803 21.3931 13.7319C21.2727 13.6608 21.1676 13.5667 21.0836 13.4551C20.3447 12.4732 19.3228 11.7206 18.4819 11.5391C18.2583 11.4908 18.0562 11.3719 17.9056 11.2C17.755 11.0281 17.6639 10.8124 17.6458 10.5848C17.6276 10.3571 17.6835 10.1297 17.805 9.93628C17.9265 9.74281 18.1073 9.59357 18.3204 9.51067C18.5858 9.40726 18.8224 9.24158 19.0101 9.02764C19.1977 8.8137 19.331 8.55779 19.3987 8.28156C19.4663 8.00533 19.4663 7.7169 19.3987 7.44066C19.331 7.16443 19.1977 6.90852 19.01 6.69458C18.8224 6.48064 18.5858 6.31496 18.3204 6.21156C18.055 6.10816 17.7686 6.07007 17.4853 6.10052C17.2021 6.13097 16.9303 6.22906 16.693 6.3865C16.4558 6.54394 16.26 6.7561 16.1223 7.00502C16.057 7.13116 15.967 7.24296 15.8576 7.3338C15.7483 7.42464 15.6218 7.49268 15.4857 7.53391C15.3495 7.57513 15.2065 7.5887 15.065 7.57381C14.9235 7.55891 14.7865 7.51587 14.662 7.44721C14.5374 7.37855 14.4279 7.28568 14.34 7.17407C14.252 7.06246 14.1874 6.93439 14.1499 6.79742C14.1123 6.66045 14.1027 6.51737 14.1215 6.37662C14.1404 6.23587 14.1873 6.10032 14.2595 5.97797C14.5229 5.51309 14.8792 5.10724 15.3064 4.78562C15.7336 4.464 16.2224 4.23348 16.7426 4.10838C17.2628 3.98328 17.8032 3.96628 18.3303 4.05842C18.8573 4.15056 19.3598 4.34989 19.8064 4.64401C20.253 4.93814 20.6343 5.32078 20.9265 5.76817C21.2187 6.21556 21.4156 6.71814 21.505 7.2447C21.5945 7.77125 21.5744 8.31054 21.4463 8.82905C21.3181 9.34756 21.0844 9.83423 20.7598 10.2588C21.5409 10.7781 22.2266 11.4277 22.7868 12.1792C22.9563 12.4045 23.0291 12.6878 22.9894 12.9668C22.9496 13.2457 22.8005 13.4975 22.5748 13.6667ZM5.51834 11.5417C4.67741 11.7232 3.65552 12.4758 2.91659 13.4586C2.74661 13.6839 2.49393 13.8326 2.21411 13.872C1.9343 13.9113 1.65029 13.8381 1.42455 13.6684C1.19882 13.4988 1.04985 13.2466 1.01043 12.9673C0.971 12.688 1.04434 12.4045 1.21432 12.1792C1.7748 11.428 2.46042 10.7784 3.24126 10.2588C2.91668 9.83423 2.68304 9.34756 2.55485 8.82905C2.42665 8.31054 2.40664 7.77125 2.49606 7.2447C2.58547 6.71814 2.78241 6.21556 3.07463 5.76817C3.36684 5.32078 3.74811 4.93814 4.19473 4.64401C4.64135 4.34989 5.14379 4.15056 5.67084 4.05842C6.1979 3.96628 6.7383 3.98328 7.25849 4.10838C7.77868 4.23348 8.26755 4.464 8.69472 4.78562C9.12189 5.10724 9.47825 5.51309 9.74165 5.97797C9.81385 6.10032 9.86075 6.23587 9.87957 6.37662C9.8984 6.51737 9.88876 6.66045 9.85124 6.79742C9.81372 6.93439 9.74907 7.06246 9.66111 7.17407C9.57316 7.28568 9.46368 7.37855 9.33915 7.44721C9.21462 7.51587 9.07757 7.55891 8.93609 7.57381C8.7946 7.5887 8.65157 7.57513 8.51543 7.53391C8.37929 7.49268 8.25282 7.42464 8.14347 7.3338C8.03413 7.24296 7.94414 7.13116 7.87882 7.00502C7.74108 6.7561 7.54531 6.54394 7.30805 6.3865C7.0708 6.22906 6.79905 6.13097 6.51579 6.10052C6.23252 6.07007 5.94608 6.10816 5.68068 6.21156C5.41528 6.31496 5.17874 6.48064 4.99105 6.69458C4.80337 6.90852 4.67006 7.16443 4.60242 7.44066C4.53477 7.7169 4.53477 8.00533 4.60242 8.28156C4.67006 8.55779 4.80337 8.8137 4.99105 9.02764C5.17873 9.24158 5.41528 9.40726 5.68068 9.51067C5.89384 9.59357 6.07458 9.74281 6.1961 9.93628C6.31762 10.1297 6.37346 10.3571 6.35534 10.5848C6.33722 10.8124 6.24611 11.0281 6.09551 11.2C5.94491 11.3719 5.74284 11.4908 5.51923 11.5391L5.51834 11.5417Z" fill="#242526"/>
</svg>
