<svg width="24" height="24" viewBox="0 0 24 24" fill="none" xmlns="http://www.w3.org/2000/svg">
<path d="M22.0543 3.81927C22.0255 3.35001 21.8258 2.90747 21.4927 2.57503C21.1597 2.24259 20.7163 2.04322 20.2461 2.01448C18.9792 1.94033 15.7449 2.05493 13.0597 4.73418L12.7094 5.08185H7.24428C6.99074 5.08101 6.73957 5.13046 6.50535 5.22734C6.27113 5.32423 6.05854 5.46661 5.87992 5.64621L2.56553 8.95242C2.3118 9.20555 2.13379 9.52427 2.05148 9.87279C1.96917 10.2213 1.98582 10.5858 2.09957 10.9254C2.21332 11.265 2.41965 11.5662 2.69541 11.7953C2.97117 12.0243 3.30544 12.1721 3.66068 12.222L7.24428 12.7209L11.3277 16.7966L11.8285 20.3773C11.8772 20.7324 12.0249 21.0667 12.2547 21.3422C12.4845 21.6177 12.7871 21.8233 13.1282 21.9355C13.3265 22.0004 13.5341 22.0329 13.7428 22.0318C13.9957 22.0317 14.2461 21.9816 14.4795 21.8846C14.713 21.7876 14.925 21.6455 15.1033 21.4665L18.4167 18.1584C18.5964 17.98 18.7388 17.7677 18.8357 17.534C18.9326 17.3002 18.982 17.0496 18.9812 16.7966V11.3418L19.3285 10.996C22.0138 8.31198 22.1286 5.08185 22.0543 3.81927ZM7.40252 7.39321H10.3937L7.37839 10.4057L4.751 10.0397L7.40252 7.39321ZM14.6971 6.36947C15.3578 5.70457 16.1461 5.17959 17.0149 4.82595C17.8836 4.47232 18.815 4.29731 19.7531 4.3114C19.7678 5.24806 19.5926 6.17802 19.2381 7.0454C18.8836 7.91278 18.3571 8.69968 17.6902 9.35883L12.4199 14.6162L9.42878 11.6307L14.6971 6.36947ZM16.6654 16.6387L14.013 19.2861L13.6463 16.6637L16.6654 13.6531V16.6387ZM9.75009 18.7208C8.9145 19.8794 7.22498 21.2614 3.92892 21.2614C3.62184 21.2614 3.32733 21.1396 3.11019 20.9229C2.89304 20.7062 2.77105 20.4122 2.77105 20.1057C2.77105 16.8168 4.15567 15.1305 5.31739 14.2955C5.56699 14.1311 5.87067 14.0694 6.16481 14.1234C6.45895 14.1774 6.72073 14.343 6.89533 14.5853C7.06993 14.8277 7.1438 15.1281 7.10147 15.4236C7.05914 15.7191 6.90389 15.9868 6.66824 16.1706C6.0893 16.5857 5.4245 17.3744 5.18038 18.8547C6.66341 18.611 7.45366 17.9455 7.86952 17.3696C7.95543 17.2397 8.06675 17.1285 8.19679 17.0426C8.32684 16.9567 8.47293 16.8979 8.6263 16.8697C8.77967 16.8415 8.93716 16.8446 9.08933 16.8786C9.24149 16.9127 9.38519 16.9771 9.5118 17.068C9.63842 17.1589 9.74533 17.2743 9.82614 17.4075C9.90695 17.5406 9.95998 17.6886 9.98205 17.8427C10.0041 17.9968 9.99478 18.1537 9.95459 18.3041C9.9144 18.4545 9.84419 18.5953 9.74816 18.7179L9.75009 18.7208Z" fill="#242526"/>
</svg>
